<svg xmlns="http://www.w3.org/2000/svg" viewBox="0 0 22.31 18.77">
  <defs>
    <style>.cls-1{fill:#F28904;}</style>
  </defs>
  <g id="레이어_2" data-name="레이어 2">
    <g id="레이어_1-2" data-name="레이어 1">
      <path class="cls-1" d="M5.53,8.27a.88.88,0,1,0-.88.88.88.88,0,0,0,.88-.88m7.82,0a.88.88,0,1,0-.87.88.88.88,0,0,0,.87-.88m5.26,0a.88.88,0,1,0-.87.88.88.88,0,0,0,.87-.88m1.27,1.89a2,2,0,0,1-2,2.13h-.53V11.08h.33a.87.87,0,0,0,.87-1V9.76a1.57,1.57,0,0,1-1.2.52c-1.9,0-1.87-2-1.87-2a1.89,1.89,0,0,1,1.93-2.1,1.48,1.48,0,0,1,1.14.52V6.3h1.33ZM14.79,8.27c0,2.08-2.31,2.08-2.31,2.08a2,2,0,0,1-2.26-2.08c0-2.11,2.26-2.11,2.26-2.11a2.08,2.08,0,0,1,2.31,2.11M9.26,10.21H7.94V6.84c0-1.16-.62-1.13-.62-1.13V4.39c2,0,1.94,2.14,1.94,2.14Zm-2.38-2A2,2,0,0,1,5,10.35a1.29,1.29,0,0,1-1.14-.59v.45H2.43V4.52H3.79V6.68A1.84,1.84,0,0,1,5,6.15c1.86,0,1.93,2.08,1.93,2.08m15.43,3.69V3.54A3.53,3.53,0,0,0,18.79,0H3.52A3.53,3.53,0,0,0,0,3.54v8.38a3.53,3.53,0,0,0,3.52,3.54H8.78l1.79,2.92a.35.35,0,0,0,.06.08.62.62,0,0,0,.52.31.58.58,0,0,0,.52-.3.34.34,0,0,0,.06-.09l1.8-2.92h5.26a3.53,3.53,0,0,0,3.52-3.54" />
    </g>
  </g>
</svg>