<svg xmlns="http://www.w3.org/2000/svg" viewBox="0 0 10.97 20.87">
  <defs>
    <style>.cls-1{fill:#F28904;}</style>
  </defs>
  <g id="레이어_2" data-name="레이어 2">
    <g id="레이어_1-2" data-name="레이어 1">
      <path class="cls-1" d="M8.23,0c.56,0,1.12,0,1.68.05.36,0,.72.07,1.06.11l0,3.36H8.75c-.89,0-1.55.36-1.6,1.47,0,.8,0,2.57-.05,2.67h3.71c-.18,1.29-.34,2.52-.52,3.77H7.11L7,20.87H3.12l.08-9.44H0L0,7.67H3.24V7.39c0-.76,0-1.51,0-2.27a8.84,8.84,0,0,1,.12-1.44A4.28,4.28,0,0,1,5.1.88,5,5,0,0,1,7.92,0h.31" />
    </g>
  </g>
</svg>