<svg xmlns="http://www.w3.org/2000/svg" viewBox="0 0 11.1 20.87">
  <defs>
    <style>.cls-1{fill:#F28904;}</style>
  </defs>
  <g id="레이어_2" data-name="레이어 2">
    <g id="레이어_1-2" data-name="레이어 1">
      <path class="cls-1" d="M10,0H1.09A1.08,1.08,0,0,0,0,1.08V9.94A1.09,1.09,0,0,0,1.09,11H5.2a6.75,6.75,0,0,1-1.1,3.21,12.9,12.9,0,0,1-2.26,2.42.6.6,0,0,0-.21.44.61.61,0,0,0,.15.36l2.87,3.22a.72.72,0,0,0,.26.18.46.46,0,0,0,.38-.05A14.43,14.43,0,0,0,11.1,9.59V1.08A1.08,1.08,0,0,0,10,0" />
    </g>
  </g>
</svg>