<svg xmlns="http://www.w3.org/2000/svg" viewBox="0 0 105.85 34.01"><defs><style>.cls-1{fill:#e1002a;}.cls-2{fill:#f08000;}</style></defs><g id="레이어_2" data-name="레이어 2"><path class="cls-1" d="M6.39,25c-1.21-.56-2.2-1-2.2-1.94,0-.71.57-1.22,1.68-1.22A6,6,0,0,1,7,21.91,3.71,3.71,0,0,0,7.5,22c1,0,1.53-.58,1.89-1.69l.15-.45a10.32,10.32,0,0,0-3.82-.76c-3.3,0-5,2.12-5,4.32a3.74,3.74,0,0,0,.89,2.54,8,8,0,0,0,2.63,1.8c1.37.67,2.59,1.16,2.59,2.15s-.9,1.38-2.12,1.38a6.72,6.72,0,0,1-3.3-1.06L0,32.75A9.36,9.36,0,0,0,4.89,34c3.08,0,5.42-1.77,5.42-4.49S8.14,25.81,6.39,25Z"/><path class="cls-1" d="M18.45,26.22,24,19.37h-4l-4.46,5.91h-.06V19.37H12.25V33.89h.19a2.82,2.82,0,0,0,3.11-3V27.53h.07l4.54,6.18h4.18Z"/><path class="cls-2" d="M39.3,29.84a3.82,3.82,0,0,0-4-4.16,5.35,5.35,0,0,0-1.36.18V23.69a1.64,1.64,0,0,0-1.68-1.83h-.32V33.39a10.68,10.68,0,0,0,3.22.5A3.84,3.84,0,0,0,39.3,29.84Zm-2.15-.05a2.21,2.21,0,0,1-2.26,2.47,4.12,4.12,0,0,1-1-.12V27.43a3.84,3.84,0,0,1,1-.12A2.2,2.2,0,0,1,37.15,29.79Z"/><path class="cls-2" d="M44.55,25.67a3.4,3.4,0,0,0-2.14,1.13,1.38,1.38,0,0,0-1.44-1,2.69,2.69,0,0,0-.53.06,7.51,7.51,0,0,1,.23,1.9v5.93h2V28.12a2.43,2.43,0,0,1,1.54-.7,1.73,1.73,0,0,1,.91.24L45.85,26A2.13,2.13,0,0,0,44.55,25.67Z"/><path class="cls-2" d="M49.78,33.88c-2.45,0-3.92-1.61-3.92-4.1s1.45-4.11,3.92-4.11,3.93,1.64,3.93,4.11S52.36,33.88,49.78,33.88Zm0-1.54c1.23,0,1.93-1.05,1.93-2.56s-.68-2.57-1.93-2.57-1.93,1.05-1.93,2.57S48.54,32.34,49.78,32.34Z"/><path class="cls-2" d="M59.81,32.92a1.2,1.2,0,0,0,1.18.79,4,4,0,0,0,.93-.13,7.6,7.6,0,0,1-.25-2.22V28.6c0-2.05-1.32-2.93-3.35-2.93a5.7,5.7,0,0,0-3.08.92l.14.24c.17.3.32.73.83.73s.92-.39,1.87-.39,1.56.51,1.56,1.28v.28H59c-2.68,0-4.1,1-4.1,2.7a2.46,2.46,0,0,0,2.68,2.46A2.9,2.9,0,0,0,59.81,32.92Zm-.17-1.19a2.56,2.56,0,0,1-1.47.56A1.11,1.11,0,0,1,57,31.18c0-.59.57-1.1,1.65-1.1h1Z"/><path class="cls-2" d="M67.33,33.88a10.83,10.83,0,0,0,3.22-.49V21.86h-.32a1.65,1.65,0,0,0-1.68,1.83v2.17a5.35,5.35,0,0,0-1.36-.18,3.82,3.82,0,0,0-4,4.16A3.83,3.83,0,0,0,67.33,33.88Zm.26-6.57a3.73,3.73,0,0,1,1,.12v4.71a4,4,0,0,1-1,.12,2.21,2.21,0,0,1-2.27-2.47A2.2,2.2,0,0,1,67.59,27.31Z"/><path class="cls-2" d="M102.62,33.88a10.85,10.85,0,0,0,3.23-.49V21.86h-.32a1.65,1.65,0,0,0-1.68,1.83v2.17a5.35,5.35,0,0,0-1.36-.18,3.82,3.82,0,0,0-4,4.16A3.83,3.83,0,0,0,102.62,33.88Zm.26-6.57a3.84,3.84,0,0,1,1,.12v4.71a4.12,4.12,0,0,1-1,.12,2.21,2.21,0,0,1-2.26-2.47A2.2,2.2,0,0,1,102.88,27.31Z"/><path class="cls-2" d="M80,29.84a3.82,3.82,0,0,0-4-4.16,5.26,5.26,0,0,0-1.36.18V23.69A1.65,1.65,0,0,0,73,21.86h-.31V33.39a10.61,10.61,0,0,0,3.22.5A3.83,3.83,0,0,0,80,29.84Zm-2.15-.05a2.21,2.21,0,0,1-2.26,2.47,4,4,0,0,1-1-.12V27.43a3.73,3.73,0,0,1,1-.12A2.2,2.2,0,0,1,77.87,29.79Z"/><path class="cls-2" d="M86.14,32.92a1.2,1.2,0,0,0,1.18.79,3.9,3.9,0,0,0,.92-.13A7.79,7.79,0,0,1,88,31.36V28.6c0-2.05-1.32-2.93-3.35-2.93a5.66,5.66,0,0,0-3.08.92l.14.24c.17.3.32.73.82.73s.93-.39,1.88-.39S86,27.68,86,28.45v.28h-.66c-2.68,0-4.1,1-4.1,2.7a2.45,2.45,0,0,0,2.67,2.46A2.91,2.91,0,0,0,86.14,32.92ZM86,31.73a2.56,2.56,0,0,1-1.47.56,1.11,1.11,0,0,1-1.22-1.11c0-.59.57-1.1,1.65-1.1h1Z"/><path class="cls-2" d="M89.93,28.38v5.33h2V28.17a2.68,2.68,0,0,1,1.61-.78,1.53,1.53,0,0,1,1.56,1.72v4.6h2v-5.1a2.76,2.76,0,0,0-2.91-3,3.5,3.5,0,0,0-2.4,1.05,1.3,1.3,0,0,0-1.34-.88,3.9,3.9,0,0,0-.75.1A10.87,10.87,0,0,1,89.93,28.38Z"/><path class="cls-1" d="M31.83,13.89l.62,0c.29,0,.61,0,1,0a11.85,11.85,0,0,0,6.11-1.69A21.59,21.59,0,0,0,29,8.92c-.29.84-2.59,7.23-2.76,7.74A8.73,8.73,0,0,1,27.19,18a14.67,14.67,0,0,1,1.35,2.84,9.25,9.25,0,0,0,.73-4.15C29.33,15.29,29.57,13.9,31.83,13.89Z"/><path class="cls-2" d="M43.41,15.45a13.08,13.08,0,0,0-2.91-2.59l0,0a13.67,13.67,0,0,1-6.86,2c-.43,0-.69,0-.91,0l-.6,0c-1.55,0-1.86.67-1.92,2v1A7,7,0,0,1,29,21.92l0,0a1.85,1.85,0,0,0,.11.24.35.35,0,0,0,.32.2.79.79,0,0,0,.3-.08l12.74-5.92.84-.4a.41.41,0,0,0,.22-.35A.39.39,0,0,0,43.41,15.45Z"/><path class="cls-1" d="M24.35,3.9l-.1,0a3.3,3.3,0,0,0-2.77,3A4.83,4.83,0,0,0,22.09,9a6.54,6.54,0,0,1,.78,2.86,4,4,0,0,1-1.78,3.38c.33,0,.69,0,1.08,0a12.43,12.43,0,0,1,1.66.1L29,8.92A21.25,21.25,0,0,0,24.35,3.9Z"/><path class="cls-2" d="M20.05,14.91a3.45,3.45,0,0,0,1.88-3.09,5.59,5.59,0,0,0-.7-2.44,5.84,5.84,0,0,1-.71-2.54,3.9,3.9,0,0,1,2.86-3.65A18.17,18.17,0,0,0,16,0a.38.38,0,0,0-.4.42c0,.17.07.65.1.92.19,1.79,1.49,13.67,1.52,14s.17.48.43.47h.14a4.25,4.25,0,0,0,1-.24A7.63,7.63,0,0,0,20.05,14.91Z"/></g></svg>