<svg xmlns="http://www.w3.org/2000/svg" viewBox="0 0 20.23 16.39">
  <defs>
    <style>.cls-1{fill:#F28904;}</style>
  </defs>
  <g id="레이어_2" data-name="레이어 2">
    <g id="레이어_1-2" data-name="레이어 1">
      <path class="cls-1" d="M20.23,2a7.52,7.52,0,0,1-.47.64A7.88,7.88,0,0,1,18.25,4l-.07.13A11.23,11.23,0,0,1,18.08,6,12.15,12.15,0,0,1,17,9.68a12.31,12.31,0,0,1-2.27,3.26A11.18,11.18,0,0,1,9,16.12a13.74,13.74,0,0,1-2.31.27H6.33A11.65,11.65,0,0,1,.1,14.61L0,14.54a8,8,0,0,0,1,.06A8.49,8.49,0,0,0,4.15,14a8.36,8.36,0,0,0,2-1.16A4.07,4.07,0,0,1,2.3,10a3.92,3.92,0,0,0,.76.08,4.89,4.89,0,0,0,1-.12l.06,0A4.05,4.05,0,0,1,1.46,8a4.11,4.11,0,0,1-.6-2.2,4,4,0,0,0,1.84.49A4.06,4.06,0,0,1,1,3.76a4.07,4.07,0,0,1,.47-3A11.74,11.74,0,0,0,10,5.1c0-.17,0-.31-.06-.46a4,4,0,0,1,.63-2.7A4,4,0,0,1,13.38.06,4.74,4.74,0,0,1,14.13,0,4,4,0,0,1,17,1.22a.26.26,0,0,0,.15.07h.07A8.29,8.29,0,0,0,19.62.36l.06,0a4.09,4.09,0,0,1-1.76,2.25A8.15,8.15,0,0,0,20.23,2" />
    </g>
  </g>
</svg>